Coordinates
version=1
nRows=18
nColumns=19
inDegrees=yes

Units are S.I. units (second, meters, Newtons, ...)
If the header above contains a line with 'inDegrees', this indicates whether rotational values are in degrees (yes) or radians (no).

endheader
time	pelvis_tilt	pelvis_list	pelvis_rotation	pelvis_tx	pelvis_ty	pelvis_tz	hip_flexion_r	hip_adduction_r	hip_rotation_r	knee_angle_r	knee_angle_r_beta	ankle_angle_r	hip_flexion_l	hip_adduction_l	hip_rotation_l	knee_angle_l	knee_angle_l_beta	ankle_angle_l
     17.06666667	     -3.31417174	      7.19253244	      1.40458569	      2.16633909	      1.06208882	      0.98775574	    -11.67545181	    -14.17661496	    -19.05891936	     43.68894218	      0.76251589	    -20.54804481	     19.09492197	      9.57778033	     -8.31834541	      8.49936751	      0.14834195	      2.80197517
     17.07333333	     -2.92275939	      7.75089989	      1.58846628	      2.16598307	      1.05792177	      0.98651373	    -11.34255759	    -15.14533444	    -18.68477985	     46.41023649	      0.81001143	    -19.77177251	     19.52064774	      9.96572365	     -9.55934323	     11.49071373	      0.20055079	      2.87280576
     17.08000000	     -2.50177848	      8.25887131	      1.74996817	      2.16542020	      1.05349943	      0.98545423	    -10.93016636	    -16.03365273	    -18.16712910	     49.19287831	      0.85857770	    -18.93188177	     19.93889833	     10.22259640	    -10.73590350	     14.70421917	      0.25663704	      3.10487739
     17.08666667	     -2.09817154	      8.72969480	      1.88554898	      2.16473143	      1.04886060	      0.98457913	    -10.39679177	    -16.85509438	    -17.51539871	     52.00530074	      0.90766373	    -18.09996283	     20.34283805	     10.39421676	    -11.76098681	     17.98518939	      0.31390077	      3.51765748
     17.09333333	     -1.54733590	      9.19078564	      1.98653689	      2.16382214	      1.04432085	      0.98387197	     -9.92724850	    -17.61796376	    -16.76046581	     54.81020827	      0.95661860	    -17.11559152	     20.45342410	     10.56968352	    -12.47186970	     21.06422318	      0.36764005	      4.14071693
     17.10000000	     -0.62738566	      9.82568284	      2.18225086	      2.16291216	      1.04016820	      0.98313950	     -9.93185246	    -18.54671632	    -16.29084061	     57.49984998	      1.00356170	    -16.17318949	     19.99218269	     11.02417576	    -12.76404677	     23.87167235	      0.41663928	      5.03796818
     17.10666667	      0.16484204	     10.35863798	      2.31611600	      2.16170558	      1.03605381	      0.98244941	     -9.62849717	    -19.35156446	    -15.60597403	     60.21216074	      1.05090045	    -15.23012009	     19.56976191	     11.41983544	    -12.82527989	     26.47562562	      0.46208684	      6.22753538
     17.11333333	     -0.43498697	     10.59128660	      2.26860255	      2.15998454	      1.03044432	      0.98200480	     -7.27718178	    -19.83017355	    -13.97149683	     63.27718556	      1.10439523	    -14.13733304	     20.80763571	     11.38063994	    -13.22416734	     29.33099487	      0.51192243	      7.56654599
     17.12000000	     -0.19773881	     11.02961011	      2.30671860	      2.15833813	      1.02611552	      0.98143742	     -6.02235199	    -20.47721478	    -12.80328424	     66.01112406	      1.15211146	    -13.06252402	     20.84464147	     11.73292215	    -13.14395631	     31.62692736	      0.55199401	      9.16724969
     17.12666667	      0.53218587	     11.49002701	      2.42808037	      2.15668067	      1.02273368	      0.98075310	     -5.41061697	    -21.12292938	    -11.96665950	     68.47697007	      1.19514859	    -11.97404338	     20.14338115	     12.23940987	    -12.71089182	     33.55452208	      0.58563689	     10.95614166
     17.13333333	      0.02914734	     11.79530130	      2.18871414	      2.15463003	      1.01829827	      0.98046722	     -2.86577185	    -21.51490300	     -9.99880039	     71.19343068	      1.24255977	    -10.79633900	     20.80230864	     12.42567825	    -12.84410659	     35.42007756	      0.61819697	     12.63561061
     17.14000000	     -0.21605427	     11.90851792	      2.18842462	      2.15259039	      1.01464841	      0.97989089	     -0.76982366	    -21.64737913	     -8.48727542	     73.58909848	      1.28437206	     -9.59705178	     21.01030397	     12.56091549	    -12.53270883	     37.04733735	      0.64659802	     14.39630984
     17.14666667	      0.13923902	     12.08145651	      2.06881913	      2.15074176	      1.01224386	      0.97936072	      0.60982916	    -21.80296421	     -7.10962974	     75.64129068	      1.32018957	     -8.36004401	     20.33005401	     12.79238747	    -12.19167383	     38.24224796	      0.66745314	     16.10761577
     17.15333333	     -0.42910495	     12.02364150	      1.67171312	      2.14862702	      1.00924853	      0.97937536	      3.40965875	    -21.52397163	     -4.98230955	     77.75661346	      1.35710892	     -7.21386742	     20.61757011	     12.61706153	    -12.31875624	     39.30869176	      0.68606610	     17.58664505
     17.16000000	     -0.68050219	     11.85030301	      1.41072369	      2.14669563	      1.00720309	      0.97917563	      5.66662729	    -21.07885746	     -3.27129219	     79.49426249	      1.38743662	     -6.04734917	     20.37007386	     12.42003465	    -12.18007879	     40.10571641	      0.69997680	     18.97086543
     17.16666667	     -0.96617610	     11.57355519	      1.12660784	      2.14488011	      1.00566680	      0.97902058	      7.93152402	    -20.45961744	     -1.64888578	     80.98017061	      1.41337061	     -4.91962353	     20.00978706	     12.11440585	    -12.06364314	     40.65464542	      0.70955742	     20.17304136
     17.17333333	     -1.18044099	     11.20414338	      0.76407027	      2.14322255	      1.00478615	      0.97902183	     10.07828011	    -19.65950130	     -0.09237626	     82.18333681	      1.43436982	     -3.85332942	     19.41779307	     11.69566363	    -12.00851090	     40.93871540	      0.71451538	     21.19263847
     17.18000000	     -1.22402929	     10.75293352	      0.41889347	      2.14178515	      1.00467355	      0.97907657	     11.90657220	    -18.74848922	      1.21300674	     83.06184569	      1.44970269	     -2.82525569	     18.47784374	     11.21259340	    -11.92757464	     40.95932337	      0.71487505	     22.05502244
